<?xml version="1.0" standalone="no"?><!DOCTYPE svg PUBLIC "-//W3C//DTD SVG 1.1//EN" "http://www.w3.org/Graphics/SVG/1.1/DTD/svg11.dtd"><svg class="icon" width="256px" height="256.00px" viewBox="0 0 1024 1024" version="1.1" xmlns="http://www.w3.org/2000/svg"><path d="M141.28490373 633.06988526c0 0 0 0 0 0 48.2593689 0 87.38085938-39.12149047 87.38085937-87.38085938 0-48.2593689-39.12149047-87.38085938-87.38085936-87.38085937 0 0 0 0 0 0-48.2593689 0-87.38085938 39.12149047-87.38085939 87.38085938 0 48.2593689 39.12149047 87.38085938 87.38085938 87.38085937 0 0 0 0 0 0z" fill="#bfbfbf" /><path d="M512 633.06988526c0 0 0 0 0 0 48.2593689 0 87.38085938-39.12149047 87.38085938-87.38085938 0-48.2593689-39.12149047-87.38085938-87.38085938-87.38085938 0 0 0 0 0 0-48.2593689 0-87.38085938 39.12149047-87.38085938 87.38085938 0 48.2593689 39.12149047 87.38085938 87.38085938 87.38085938 0 0 0 0 0 0z" fill="#bfbfbf" /><path d="M882.71509627 633.06988526c0 0 0 0 0 0 48.2593689 0 87.38085938-39.12149047 87.38085938-87.38085937 0-48.2593689-39.12149047-87.38085938-87.38085939-87.38085938 0 0 0 0 0 0-48.2593689 0-87.38085938 39.12149047-87.38085936 87.38085937 0 48.2593689 39.12149047 87.38085938 87.38085937 87.38085938 0 0 0 0 0 0z" fill="#bfbfbf" /></svg>