<svg width="256px" height="256.00px" viewBox="0 0 1024 1024" xmlns="http://www.w3.org/2000/svg"><path d="M929.684211 970.105263H916.210526a26.947368 26.947368 0 0 1 0 53.894737H619.789474a26.947368 26.947368 0 0 1 0-53.894737h13.473684a13.473684 13.473684 0 0 1 0-26.947368h296.421053a13.473684 13.473684 0 0 1 0 26.947368zM916.210526 538.947368a26.947368 26.947368 0 0 1-26.947368-26.947368V107.789474a53.894737 53.894737 0 0 0-53.894737-53.894737H188.631579a53.894737 53.894737 0 0 0-53.894737 53.894737v808.421052a53.894737 53.894737 0 0 0 53.894737 53.894737h296.421053a26.947368 26.947368 0 0 1 0 53.894737H188.631579a107.789474 107.789474 0 0 1-107.789474-107.789474V107.789474a107.789474 107.789474 0 0 1 107.789474-107.789474h646.736842a107.789474 107.789474 0 0 1 107.789474 107.789474v404.210526a26.947368 26.947368 0 0 1-26.947369 26.947368zM242.526316 754.526316h242.526316a26.947368 26.947368 0 0 1 0 53.894737H242.526316a26.947368 26.947368 0 0 1 0-53.894737z m538.947368-485.052632H242.526316a26.947368 26.947368 0 0 1 0-53.894737h538.947368a26.947368 26.947368 0 0 1 0 53.894737zM215.578947 431.157895a26.947368 26.947368 0 0 1 26.947369-26.947369h538.947368a26.947368 26.947368 0 0 1 0 53.894737H242.526316a26.947368 26.947368 0 0 1-26.947369-26.947368z m431.157895 269.473684a134.736842 134.736842 0 1 1 214.851369 107.789474H862.315789a53.894737 53.894737 0 0 1 0 107.789473h-161.68421a53.894737 53.894737 0 0 1 0-107.789473h0.727579A134.170947 134.170947 0 0 1 646.736842 700.631579z m107.789474 75.883789V835.368421h-40.421053a13.473684 13.473684 0 0 0 0 26.947368h134.736842a13.473684 13.473684 0 0 0 0-26.947368H808.421053v-58.853053a80.842105 80.842105 0 1 0-53.894737 0zM242.526316 619.789474a26.947368 26.947368 0 0 1 0-53.894737h269.473684a26.947368 26.947368 0 0 1 0 53.894737H242.526316z" fill="#020016"/></svg>
