<?xml version="1.0" standalone="no"?><!DOCTYPE svg PUBLIC "-//W3C//DTD SVG 1.1//EN" "http://www.w3.org/Graphics/SVG/1.1/DTD/svg11.dtd"><svg class="icon" width="256px" height="256.00px" viewBox="0 0 1024 1024" version="1.1" xmlns="http://www.w3.org/2000/svg"><path d="M871.14 871.226l-173.717-173.719c44.811-54.111 71.834-123.485 71.834-199.231 0-172.702-140.003-312.704-312.705-312.704s-312.705 140.002-312.705 312.704 140.003 312.705 312.705 312.705c74.522 0 142.92-26.111 196.644-69.626l129.309 128.459 0.112-0.077 45.007 45.007c12.018 12.018 31.501 12.018 43.518 0s12.017-31.501-0.001-43.519zM456.551 749.743c-138.88 0-251.465-112.585-251.465-251.465 0-138.88 112.584-251.465 251.465-251.465 138.881 0 251.465 112.585 251.465 251.465 0 138.88-112.584 251.465-251.465 251.465z" /></svg>