<svg width="256px" height="256.00px" viewBox="0 0 1024 1024" xmlns="http://www.w3.org/2000/svg"><path d="M698.181818 546.909091a35.141818 35.141818 0 0 1-24.669091-10.24l-372.363636-372.363636a34.909091 34.909091 0 0 1 49.338182-49.338182l372.363636 372.363636a34.676364 34.676364 0 0 1 0 49.338182 35.141818 35.141818 0 0 1-24.669091 10.24z" fill="#bfbfbf"/><path d="M325.818182 919.272727a35.141818 35.141818 0 0 1-24.669091-10.24 34.676364 34.676364 0 0 1 0-49.338182l372.363636-372.363636a34.909091 34.909091 0 0 1 49.338182 49.338182l-372.363636 372.363636a35.141818 35.141818 0 0 1-24.669091 10.24z" fill="#bfbfbf"/></svg>
