<?xml version="1.0" standalone="no"?><!DOCTYPE svg PUBLIC "-//W3C//DTD SVG 1.1//EN" "http://www.w3.org/Graphics/SVG/1.1/DTD/svg11.dtd"><svg class="icon" width="256px" height="256.00px" viewBox="0 0 1024 1024" version="1.1" xmlns="http://www.w3.org/2000/svg"><path d="M506.389333 90.666667a37.333333 37.333333 0 0 1 3.050667 74.538666l-3.050667 0.128h-211.648a129.408 129.408 0 0 0-129.322666 124.544l-0.085334 4.864v434.517334a129.408 129.408 0 0 0 124.544 129.322666l4.864 0.085334h434.517334a129.408 129.408 0 0 0 129.322666-124.544l0.085334-4.864v-212.757334a37.333333 37.333333 0 0 1 74.538666-3.072l0.128 3.072v212.757334c0 110.762667-88.234667 200.917333-198.250666 203.989333l-5.824 0.085333H294.741333c-110.762667 0-200.917333-88.234667-203.989333-198.250666l-0.085333-5.824V294.741333c0-110.762667 88.234667-200.917333 198.250666-203.989333l5.824-0.085333h211.626667z" fill="#2c2c2c" /><path d="M714.837333 108.501333a37.333333 37.333333 0 0 1 48.341334-13.973333l2.986666 1.642667 152.149334 93.184c30.442667 18.645333 19.84 65.301333-15.68 68.970666-80 8.234667-152.405333 38.378667-217.386667 90.346667-52.224 43.52-89.194667 89.728-113.642667 135.573333a296 296 0 0 0-18.965333 42.88l-2.496 7.765334-1.322667 4.842666-0.213333 0.917334a37.333333 37.333333 0 0 1-73.216-14.634667c3.349333-16.768 12.522667-43.52 30.336-76.928 28.885333-54.144 71.914667-107.946667 132.266667-158.250667 48.277333-38.613333 100.202667-67.072 155.626666-85.290666l5.376-1.706667-71.829333-44.010667a37.333333 37.333333 0 0 1-13.973333-48.341333l1.642666-2.986667z" fill="#2c2c2c" /></svg>