<svg width="256px" height="256.00px" viewBox="0 0 1024 1024" xmlns="http://www.w3.org/2000/svg"><path d="M160.9 894.6c-17.6 0-32-14.4-32-32V576.1c0-17.6 14.4-32 32-32s32 14.4 32 32v286.5c0 17.6-14.4 32-32 32zM395.5 893.1c-17.6 0-32-14.4-32-32v-413c0-17.6 14.4-32 32-32s32 14.4 32 32v413c0 17.6-14.4 32-32 32zM630.2 893.1c-17.6 0-32-14.4-32-32v-285c0-17.6 14.4-32 32-32s32 14.4 32 32v285c0 17.6-14.4 32-32 32zM864.8 894.6c-17.6 0-32-14.4-32-32V445.1c0-17.6 14.4-32 32-32s32 14.4 32 32v417.5c0 17.6-14.4 32-32 32zM886.7 138.8c-5.9-6.3-14.2-10.2-23.4-10.2H710.6c-17.6 0-32 14.4-32 32s14.4 32 32 32h69.2L626.5 317.9l-214-122.1c-9.7-5.6-21.7-5.6-31.4-0.2l-238.5 133c-15.4 8.6-21 28.1-12.4 43.5 5.9 10.5 16.7 16.4 28 16.4 5.3 0 10.6-1.3 15.6-4.1l222.8-124.2 217.4 124c11.5 6.6 25.9 5.4 36.1-3l183-149.6v48.3c0 17.6 14.4 32 32 32s32-14.4 32-32V162.2c-0.2-9.2-4.1-17.5-10.4-23.4z" fill="#2c2c2c"/></svg>
